<?xml version="1.0" ?>
<!-- Uploaded to: SVG Repo, www.svgrepo.com, Generator: SVG Repo Mixer Tools -->
<svg fill="#000000" width="800px" height="800px" viewBox="0 0 500 500" id="Layer_1" version="1.1" xml:space="preserve" xmlns="http://www.w3.org/2000/svg" xmlns:xlink="http://www.w3.org/1999/xlink">
<g id="camera">
<g>
<path d="M147.68,122.9H83.69c-1.92,0-3.48-1.56-3.48-3.48V92.47c0-3.13,2.55-5.68,5.68-5.68h59.6c3.13,0,5.68,2.55,5.68,5.68    v26.95C151.17,121.34,149.6,122.9,147.68,122.9z M86.21,116.9h58.95V92.8H86.21V116.9z"/>
</g>
<g>
<path d="M444.96,413.2H55.04c-16.3,0-29.55-13.26-29.55-29.55v-237.2c0-16.3,13.26-29.55,29.55-29.55h130.74l23.18-30.04h82.08    l23.18,30.04h130.74c16.3,0,29.55,13.26,29.55,29.55v237.2C474.51,399.95,461.26,413.2,444.96,413.2z M55.04,122.9    c-12.99,0-23.55,10.57-23.55,23.55v237.2c0,12.99,10.57,23.55,23.55,23.55h389.92c12.99,0,23.55-10.57,23.55-23.55v-237.2    c0-12.99-10.57-23.55-23.55-23.55H311.27l-23.18-30.04h-76.18l-23.18,30.04H55.04z"/>
</g>
<g>
<path d="M404.3,187c-12.57,0-22.8-10.23-22.8-22.8s10.23-22.8,22.8-22.8s22.8,10.23,22.8,22.8S416.87,187,404.3,187z     M404.3,147.41c-9.26,0-16.8,7.54-16.8,16.8c0,9.26,7.54,16.8,16.8,16.8c9.26,0,16.8-7.54,16.8-16.8    C421.1,154.94,413.56,147.41,404.3,147.41z"/>
</g>
<g>
<path d="M250,368.47c-53.49,0-97.01-43.52-97.01-97.01s43.52-97.01,97.01-97.01s97.01,43.52,97.01,97.01S303.49,368.47,250,368.47    z M250,180.44c-50.18,0-91.01,40.83-91.01,91.01s40.83,91.01,91.01,91.01s91.01-40.83,91.01-91.01S300.18,180.44,250,180.44z     M250,340.47c-38.05,0-69.01-30.96-69.01-69.02c0-38.05,30.96-69.01,69.01-69.01s69.01,30.96,69.01,69.01    C319.01,309.51,288.05,340.47,250,340.47z M250,208.44c-34.75,0-63.01,28.27-63.01,63.01s28.27,63.02,63.01,63.02    s63.01-28.27,63.01-63.02S284.75,208.44,250,208.44z"/>
</g>
<g>
<path d="M185.08,343.48H31.49V204.13h148.73c2.02-2.09,4.13-4.1,6.32-6H25.49v151.34h166.93    C189.87,347.59,187.42,345.59,185.08,343.48z"/>
<path d="M313.46,198.13c2.2,1.9,4.3,3.91,6.32,6h148.73v139.34H314.92c-2.34,2.12-4.79,4.12-7.34,6h166.93V198.13H313.46z"/>
</g>
</g>
</svg>