<?xml version="1.0" encoding="iso-8859-1"?>
<!-- Uploaded to: SVG Repo, www.svgrepo.com, Generator: SVG Repo Mixer Tools -->
<svg fill="#000000" version="1.1" id="Capa_1" xmlns="http://www.w3.org/2000/svg" xmlns:xlink="http://www.w3.org/1999/xlink" 
	 viewBox="0 0 64.002 64.002" xml:space="preserve">
<g>
	<path d="M23.501,15c4.136,0,7.5-3.364,7.5-7.5S27.637,0,23.501,0s-7.5,3.364-7.5,7.5S19.365,15,23.501,15z M23.501,2
		c3.032,0,5.5,2.468,5.5,5.5s-2.468,5.5-5.5,5.5s-5.5-2.468-5.5-5.5S20.469,2,23.501,2z"/>
	<path d="M41.501,15c4.136,0,7.5-3.364,7.5-7.5S45.637,0,41.501,0s-7.5,3.364-7.5,7.5S37.365,15,41.501,15z M41.501,2
		c3.032,0,5.5,2.468,5.5,5.5s-2.468,5.5-5.5,5.5s-5.5-2.468-5.5-5.5S38.469,2,41.501,2z"/>
	<path d="M63.512,19.14c-0.303-0.18-0.68-0.184-0.989-0.017l-9.522,5.193V22c0-2.757-2.243-5-5-5h-30c-2.045,0-3.802,1.237-4.576,3
		H6.001c0-1.654-1.346-3-3-3s-3,1.346-3,3v8c0,1.654,1.346,3,3,3s3-1.346,3-3h7v10c0,2.757,2.243,5,5,5h5.451l-7.397,16.375
		c-0.749,1.579-0.086,3.5,1.478,4.283c0.456,0.229,0.948,0.343,1.443,0.343c0.354,0,0.711-0.059,1.058-0.178
		c0.828-0.285,1.492-0.878,1.877-1.685l7.09-15.537V61c0,1.654,1.346,3,3,3s3-1.346,3-3V46.601l7.098,15.554
		c0.377,0.791,1.041,1.384,1.869,1.669c0.347,0.119,0.702,0.178,1.058,0.178c0.495,0,0.987-0.115,1.444-0.343
		c1.563-0.783,2.227-2.704,1.485-4.267L40.55,43h7.451c2.757,0,5-2.243,5-5v-2.316l9.521,5.194C62.672,40.959,62.836,41,63.001,41
		c0.177,0,0.353-0.047,0.511-0.14c0.302-0.18,0.489-0.507,0.489-0.86V20C64.001,19.647,63.814,19.32,63.512,19.14z M4.001,28
		c0,0.552-0.448,1-1,1s-1-0.448-1-1v-8c0-0.552,0.448-1,1-1s1,0.448,1,1v1v6V28z M6.001,26v-4h7v4H6.001z M20.099,61.293
		c-0.145,0.303-0.399,0.53-0.716,0.639c-0.315,0.109-0.655,0.087-0.956-0.062c-0.598-0.299-0.852-1.033-0.558-1.653L25.647,43h2.799
		L20.099,61.293z M32.001,62c-0.552,0-1-0.448-1-1V43h2v18C33.001,61.552,32.553,62,32.001,62z M46.141,60.232
		c0.286,0.604,0.032,1.338-0.564,1.637c-0.301,0.15-0.642,0.172-0.957,0.062c-0.317-0.108-0.571-0.336-0.708-0.623L35.557,43h2.799
		L46.141,60.232z M51.001,38c0,1.654-1.346,3-3,3h-30c-1.654,0-3-1.346-3-3V27v-5c0-1.654,1.346-3,3-3h30c1.654,0,3,1.346,3,3v4v8
		V38z M62.001,38.315l-9-4.909v-6.812l9-4.909V38.315z"/>
	<path d="M38.791,25.152c-1.589-1.532-4.17-1.53-5.757,0l-0.033,0.033l-0.033-0.032c-1.589-1.532-4.17-1.53-5.757,0
		c-0.78,0.753-1.21,1.757-1.21,2.826s0.43,2.073,1.21,2.825l5.096,4.915C32.5,35.906,32.751,36,33.001,36s0.501-0.094,0.694-0.28
		l5.096-4.915c0.78-0.752,1.21-1.756,1.21-2.825S39.571,25.906,38.791,25.152z M37.402,29.365l-4.401,4.245L28.6,29.365
		c-0.386-0.372-0.599-0.864-0.599-1.386c0-0.523,0.212-1.015,0.599-1.388c0.411-0.396,0.95-0.594,1.49-0.594
		c0.539,0,1.078,0.197,1.489,0.594l0.728,0.702c0.387,0.373,1.002,0.373,1.389,0l0.728-0.702c0.819-0.791,2.156-0.793,2.979,0
		c0.386,0.374,0.598,0.866,0.598,1.388S37.788,28.993,37.402,29.365z"/>
	<rect x="43.001" y="37" width="2" height="2"/>
	<rect x="47.001" y="37" width="2" height="2"/>
	<rect x="39.001" y="37" width="2" height="2"/>
</g>
</svg>